<svg xmlns="http://www.w3.org/2000/svg" viewBox="0 0 15.53 13.21"><defs><style>.cls-1{fill:#fff;}</style></defs><g id="Layer_2" data-name="Layer 2"><g id="Layer_2-2" data-name="Layer 2"><path class="cls-1" d="M5.33,1.54A6.08,6.08,0,0,1,7.27.89,5.94,5.94,0,0,1,9.54,1a6,6,0,0,1,2,.87A6.35,6.35,0,0,1,12.71,3a8.94,8.94,0,0,1,.6.83l.58-.54A6.63,6.63,0,0,0,11.37.79,6.81,6.81,0,0,0,5.89.4a6.75,6.75,0,0,0-3.5,3.07,7.46,7.46,0,0,0-.78,4A6.53,6.53,0,0,0,2,8.94a5.06,5.06,0,0,0,.42.82l.8-.21a5.48,5.48,0,0,1-.77-2.18A6,6,0,0,1,5.33,1.54Z"/><path class="cls-1" d="M3.83,10.32c0-.18.29-.17,1-.48.48-.23.55-.34.76-.31s.38.26.63.21h0a.42.42,0,0,0,.28-.18.44.44,0,0,0,0-.18,2.7,2.7,0,0,1,0-.28c0-.08,0-.13,0-.15s.11.06.45.42c.15.16.07.05.58.53.23.21.36.34.56.35a.3.3,0,0,0,.21-.05c.12-.1.1-.32.08-.46a1.65,1.65,0,0,0-.21-.58,10,10,0,0,1-.37-1,10.53,10.53,0,0,1-.69-2s.09.1.24.32c0,0,.24.32.68.91.75,1,.68.85,1,1.3.52.73.7,1.13,1,1.11a.42.42,0,0,0,.31-.19.58.58,0,0,0,0-.48,15.84,15.84,0,0,1-1-2.65s.1.07.73.81c.92,1.07-.11-.13.4.44s.54.58.7.56a.35.35,0,0,0,.25-.19c.11-.17,0-.37-.15-.92-.08-.27,0,0-.14-.51-.28-.92-.39-1.22-.31-1.27s.09,0,.43.25a2.14,2.14,0,0,0,.42.22c.22,0,.4-.07.72-.27a7.94,7.94,0,0,0,.8-.61c.29-.25.39-.37.49-.33s.16.25.19.5a8.05,8.05,0,0,1,.12,1.67A5.75,5.75,0,0,1,13.79,8a3,3,0,0,1-.22.72c-.11.24-.23.4-.18.46s.29-.13.52,0,.15.19.23.2.5-.86.61-1.78a7.86,7.86,0,0,0,0-1.68,5.38,5.38,0,0,0-.11-.9,8.79,8.79,0,0,0-.29-.87l.1-.18a5,5,0,0,1,.5-.6,2.23,2.23,0,0,0,.4-.65,1.38,1.38,0,0,0,.15-.84,1,1,0,0,0-.35-.62,1.26,1.26,0,0,0-.47-.18,2,2,0,0,0-.44,0,5.48,5.48,0,0,0-1.09.16,3,3,0,0,0-.64.19s.54-.08,1.3-.09a1.14,1.14,0,0,1,.76.17.85.85,0,0,1,.25.43.94.94,0,0,1-.11.6A5.06,5.06,0,0,1,13.5,3.86C12,5.06,12,5.19,11.73,5.15c-.46-.08-1.05-.69-1.47-.79a.35.35,0,0,0-.27,0,.28.28,0,0,0-.1.2,1.31,1.31,0,0,0,.1.68c.1.27.15.54.23.82.17.59.18.68.15.69s-.2-.17-.41-.45c-.58-.76-.49-.57-.82-1A16.2,16.2,0,0,1,8.13,4c0-.06-.16-.26-.34-.29a.49.49,0,0,0-.22,0,.36.36,0,0,0-.16.18.44.44,0,0,0,0,.36c.23.48.42,1,.66,1.48a9.23,9.23,0,0,1,.49,1.14c.15.39.16.46.14.48s-.15-.11-.77-1c-.37-.52-.65-.93-1.11-1.61l-.33-.49c-.55-.85-.76-1.15-1-1.12a.22.22,0,0,0-.13.08c-.15.14-.14.44.23,1.47.2.55.28.69.53,1.37.17.43.14.39.3.81.41,1.1.7,1.67.6,1.73s-.31-.19-.57-.41-.39-.38-.59-.38a.27.27,0,0,0-.2,0c-.16.12-.13.45-.12.6s0,.25,0,.32-.11,0-.26.09A1.33,1.33,0,0,0,5.07,9c-.29.16-.63.32-.83.41l-.44.16A10,10,0,0,1,2.53,10a4.05,4.05,0,0,1-1,.12A1.22,1.22,0,0,1,.89,10a.66.66,0,0,1-.33-.3.67.67,0,0,1,0-.46,2.28,2.28,0,0,1,.38-.78c.16-.27.31-.47.31-.47a3.17,3.17,0,0,0,.22-.29,2.27,2.27,0,0,0-.52.45l-.3.35a2.45,2.45,0,0,0-.58,1,1,1,0,0,0,.06.79.86.86,0,0,0,.42.35,4.5,4.5,0,0,0,2.39,0c.12.15.27.34.47.55a6.51,6.51,0,0,0,.87.77,5.84,5.84,0,0,0,1.16.67A6.77,6.77,0,0,0,6.64,13a6.49,6.49,0,0,0,3.24,0,6.58,6.58,0,0,0,4-3c.13-.16.17-.34.1-.43s-.3-.08-.36-.07c-.25,0-.4.21-.78.61l-.43.47a3.93,3.93,0,0,1-1.93,1.08c-.46.09-1.11.1-1.19-.12a.27.27,0,0,1,.07-.26c.09-.12.22-.13.45-.18a2.29,2.29,0,0,0,1-.35.86.86,0,0,0,.17-.17c.08-.11.18-.33.11-.42s-.28,0-.45,0a6.12,6.12,0,0,0-1.3.39,3.23,3.23,0,0,0-1.14.78c-.35.4-.26.56-.54.73a1.73,1.73,0,0,1-1.34,0,3.38,3.38,0,0,1-.72-.28,6,6,0,0,1-.69-.4,3.94,3.94,0,0,1-.64-.52C4,10.57,3.81,10.44,3.83,10.32Z"/></g></g></svg>